<svg xmlns="http://www.w3.org/2000/svg" width="1185" height="940" viewBox="0 0 1185 940">
<g transform="translate(80,-130)"><path d="M-68.5 1070c-4.333-14-7.417-26.08-9.25-36.25s-2.75-19.08-2.75-26.75q0-50.5 40.5-90.25T70.25 851.5 228 818v19q-60.5-24-105.75-76.75T52.25 635 27.5 479.5q0-104 37-182.5T168 174.25 322.5 130 477 174.25 580.5 297t37 182.5q0 85.5-25.75 159.75t-71 126.25-103.75 72V818q88 8 157.75 33.5T685 916.75t40.5 90.25c0 7.67-.917 16.58-2.75 26.75s-4.917 22.25-9.25 36.25Zm30.5-40h721c1.333-6 2.083-10.58 2.25-13.75s.25-6.25.25-9.25q0-39-39-71t-108.75-53.5T374.5 855v-44.5Q437 791 482.5 743t70.25-116 24.75-147.5q0-93-31.75-162.5t-89-108.25T322.5 170q-76.5 0-134 38.75T99.25 317 67.5 479.5q0 82 25.75 151.75T165 748t105.5 62v44.5q-96.5 8-166.25 29.75T-3 937.5t-37.5 69.5c0 3 .083 6.08.25 9.25s.917 7.75 2.25 13.75m740.5 40-3-64-27-87.5-180.5-75 88-23.5q-21.5-13.5-39.5-30.75T507 752.5L593 573l-3-208.5L500 215q38.5-39 90.25-62t111.25-23q88 0 154.5 44.25T959.5 297t37 182.5q0 83.5-24.75 156.75t-67.25 125.5-96 74.25v-20q86 9 152.75 35.5t105 66.5 38.25 89c0 7.67-.92 16.58-2.75 26.75s-4.92 22.25-9.25 36.25Z" fill="#00d4ff"></path></g>
</svg>