<svg xmlns="http://www.w3.org/2000/svg" viewBox="-16 80 1056 1040"><path d="M27 616.5q-17 0-30-7t-13-24T-.5 554l439-434q21.5-21.5 37.75-30.75T512 80t35.75 9.25T585.5 120l439 434c10.33 9.667 15.5 20.167 15.5 31.5q0 17-12.75 24c-8.5 4.667-18.58 7-30.25 7h-99.5L512 236.5l-385.5 380Zm193 426q-14.5 0-28-.75t-25.5-.75c-35.333 0-58.75-2.67-70.25-8S79 1017.5 79 1002.5q0-46 23.25-73.5t58.25-27.5q19 0 31.5 5.75t28 5.75 27.5-5.5T279 902q22 0 45.5 9.5t40 23 16.5 25v83Zm-11-204q-8 0-13.75-5.75T189.5 819v-55.5h75v75ZM381 1081h262v-28.5H381Zm7.5-57.5h247V996h-247Zm-90-185v-75h75V819q0 8-5.75 13.75T354 838.5Zm-109-110V673q0-8 5.75-13.75T209 653.5h55.5v75Zm109 0v-75H354q8 0 13.75 5.75T373.5 673v55.5ZM341 1120v-79h7.5v-45H91V594l40-30.5V957h762V563.5l40 30.5v402H675.5v45h7.5v79Zm77.5-153V695.5q0-35.5 28.5-60.75t65-25.25q37 0 65.25 25.25t28.25 60.75V967ZM565 812q7.5 0 12.75-5.25T583 794t-5.25-12.75T565 776t-12.75 5.25T547 794t5.25 12.75T565 812m78 230.5v-83q0-11.5 16.5-25t40.25-23T745 902q19.5 0 31.5 5.5T804 913q16 0 28.25-5.75t31.25-5.75q35.5 0 58.5 27.5t23 73.5c0 15-5.667 25.17-17 30.5s-34.833 8-70.5 8q-12 0-25.5.75t-28 .75Zm27-204q-8 0-13.75-5.75T650.5 819v-55.5h75v75Zm-522.5-400v-204h-15V135l125-1v100.5h-15v105Zm612 400v-75h75V819q0 8-5.75 13.75T815 838.5Zm-109-110V673q0-8 5.75-13.75T670 653.5h55.5v75Zm109 0v-75H815q8 0 13.75 5.75T834.5 673v55.5Zm-715-151H110L512 180l402 397.5h65.5q4 0 4.5-3.5t-3-7L557.5 148.5Q540 131 530.75 125T512 119t-18.75 6-26.75 23.5L43 567q-3.5 3.5-3 7t4.5 3.5"/></svg>