<svg xmlns="http://www.w3.org/2000/svg" viewBox="-18 80 1060 1040"><path d="M489.5 1120c-61 0-119.25-9.17-174.75-27.5s-106-44-151.5-77Q95 966 48 899.25T-18 754q54 42.5 138.5 73.5t181.5 31q109.5 0 199.25-33.25t154-95 99-147.25T789 393q0-69.5-15.5-144.5T727 80q103 47.5 173 120t106 165.25 36 202.25c0 76.333-14.33 147.833-43 214.5q-43 100-119 176c-50.667 50.67-109.333 90.33-176 119s-138.167 43-214.5 43m0-40q106 0 199-39.75T852 930t110.25-163.5 39.75-199q0-84-26.5-162.75t-75.25-145T785.5 147.5Q829 274 829 393q0 113-37.75 205.75T683.5 758.5 516.75 862 302 898.5q-132.5 0-247.5-60.5 47 75.5 114.5 129.75 67.5 54.255 149.25 83.25c54.5 19.33 111.583 29 171.25 29"/></svg>