<svg xmlns="http://www.w3.org/2000/svg" width="1070" height="1040" viewBox="0 0 1070 1040">
<g transform="translate(23,-80)"><path d="M150.5 1120q-30.5 0-50.75-20.25c-13.5-13.5-20.25-30.42-20.25-50.75V421q0-30.5 20.25-50.75T150.5 350h723q30.5 0 50.75 20.25T944.5 421v628c0 20.33-6.75 37.25-20.25 50.75Q904 1120 873.5 1120ZM48 980q-30.5 0-50.75-20.25T-23 909V562.5q0-30.5 20.25-50.75T48 491.5h51.5v40H48q-14 0-22.5 8.5T17 562.5V909q0 14 8.5 22.5T48 940h51.5v40Zm299-16V849h30v115Zm75 0V849h30v115Zm-80 20q-33.5 0-54.75-21.5t-21.25-56q0-35 21-56.25T342 829h340q34 0 55 21.25t21 56.25q0 34.5-21 56T682 984Zm0-40h340q17.5 0 26.75-9.75T718 906.5q0-18.5-9.25-28T682 869H342q-17.5 0-26.75 9.5t-9.25 28q0 18 9.5 27.75T342 944m155 20V849h30v115Zm75 0V849h30v115ZM333.5 738.5q-32 0-58.75-15.75t-42.5-42.5-15.75-58.75 15.75-58.5 42.5-42.25T333.5 505q32.5 0 59 15.75T434.75 563t15.75 58.5-15.75 58.75-42.25 42.5-59 15.75m0-40q32 0 54.5-22.5t22.5-54.5q0-31.5-22.5-54T333.5 545 279 567.5t-22.5 54q0 32 22.5 54.5t54.5 22.5M647 964V849h30v115Zm-496.5 116h723c9.333 0 16.833-2.83 22.5-8.5q8.5-8.505 8.5-22.5V421q0-14-8.5-22.5t-22.5-8.5h-723q-14 0-22.5 8.5t-8.5 22.5v628q0 13.995 8.5 22.5c5.667 5.67 13.167 8.5 22.5 8.5M450 792q-4 0-5.75-4t.25-7.5l59-104q3.5-6 8.5-6t8.5 6l59 104q2.5 3.5.5 7.5t-6 4Zm240.5-53.5q-32 0-58.75-15.75t-42.5-42.5-15.75-58.75 15.75-58.5 42.5-42.25T690.5 505q32.5 0 59 15.75T791.75 563t15.75 58.5-15.75 58.75-42.25 42.5-59 15.75m0-40q32 0 54.5-22.5t22.5-54.5q0-31.5-22.5-54T690.5 545 636 567.5t-22.5 54q0 32 22.5 54.5t54.5 22.5M487 370v-83.5h50V370Zm437.5 610v-40H976q14 0 22.5-8.5c5.67-5.667 8.5-13.167 8.5-22.5V562.5c0-9.333-2.83-16.833-8.5-22.5q-8.5-8.5-22.5-8.5h-51.5v-40H976q30.5 0 50.75 20.25T1047 562.5V909q0 30.5-20.25 50.75T976 980ZM512 306.5q-31 0-57-15.25t-41.25-41-15.25-56.75q0-31.5 15.25-57.25t41.25-41T512 80t56.5 15.5 40.75 41.25 15.25 56.75-15.25 56.75-40.75 41T512 306.5m0-40q29.5 0 51-21.5t21.5-51.5-21.5-51.75T512 120q-30.5 0-52 21.5t-21.5 52q0 30 21.5 51.5t52 21.5m-.5-47q10.5 0 18.25-7.75t7.75-18.25-7.75-18.25-18.25-7.75-18.25 7.75-7.75 18.25 7.75 18.25 18.25 7.75" fill="#4f7fff"></path></g>
</svg>