<svg xmlns="http://www.w3.org/2000/svg" viewBox="-3 80 1031 1040"><path d="M419.5 1120c-10.333 0-18.833-3.42-25.5-10.25s-11-15.92-13-27.25l-41-221-202.5 46q-23 5-38-5t-18.25-28.25T91 836.5L205 665 22 549.5Q2.5 537-1.75 518.75t5.5-34T36 465l210.5-36.5L199 213q-5-22.5 3.75-36.75t25.5-17 35.25 10.25l180 121.5 120-186.5q7-11.5 16.75-18T601 80q15.5 0 26 11.25t14 28.25L681.5 332l219-40.5q29.5-5.5 41.75 15T937 353L818.5 526.5l184 119c13 8.333 20.83 18.5 23.5 30.5s.75 23.083-5.75 33.25Q1010.5 724.5 988 729l-210 38.5L824 984c2.667 11.333.75 21.42-5.75 30.25q-9.75 13.245-25.5 17.25t-30.75-6L583 905l-122.5 189c-11 17.33-24.667 26-41 26m7-47L550 882l48.5-15L777 987.5q3 2 5 1.5t1-5l-46-218.5 23-35.5 221-40.5q6-1 6.25-3.75t-5.75-6.25L795.5 559l-18-43.5 121-177q4.5-6-4-5l-203 37-48.5-28-41.5-216q-.5-2.5-1.75-2.75t-2.25 1.75L479 309.5l-59 13L243 204q-2.5-1.5-3.75-.75t-.75 4.25L287 427l-22 39-223 38.5q-5 .5-5 3.75t5 6.75l195 123 7.5 39.5-120.5 182q-4.5 6.5-3.5 8.5t7 .5l214-48.5 36 26 42.5 226.5q1 3.495 2.75 3.75c1.167.17 2.417-.92 3.75-3.25m86-160.5q-65.5 0-122.75-24.25T289.5 821t-67.25-100.25T198 598t24.25-122.75T289.5 375t100.25-67.25T512.5 283.5t122.75 24.25T735.5 375t67.25 100.25T827 598t-24.25 122.75T735.5 821t-100.25 67.25T512.5 912.5m0-40q57 0 106.75-21.25t87.5-59 59-87.5T787 598t-21.25-106.75-59-87.5-87.5-59T512.5 323.5t-106.75 21.25-87.5 59-59 87.5T238 598t21.25 106.75 59 87.5 87.5 59T512.5 872.5"/></svg>