<svg xmlns="http://www.w3.org/2000/svg" width="934" height="1040" viewBox="0 0 934 1040">
<g transform="translate(-45,-80)"><path d="M524.5 1120c-38.333 0-65.75-5.42-82.25-16.25s-24.75-29.92-24.75-57.25q0-16.005 2.5-35.25 2.5-19.25 5.25-36.25t2.75-27V838a298 298 0 0 1-34.75 7 256 256 0 0 1-35.75 2.5q-68 0-125.75-31t-95.5-84.5T90 611.5q-45-60-45-133 0-54 24.25-100.25t66-77.75T229.5 260q7.5-49.5 50.25-90.25t108.5-65.25T529.5 80q68 0 128.25 23t104.5 63.75 64.25 94.75q74.5 41 113.5 106.75T979 518q0 68-29 123t-82.75 92.25T739 785L617.5 935v26q0 13.5 1.75 28.25c1.167 9.833 2.25 19.42 3.25 28.75s1.5 18 1.5 26q0 42.495-20.75 59.25c-13.833 11.17-40.083 16.75-78.75 16.75m0-40c25.667 0 42-2.42 49-7.25S584 1058.33 584 1044c0-9.67-.5-21-1.5-34q-1.5-19.5-3.25-36.5t-1.75-24v-32L681 793q-15.5 0-30-2.75T624 784l-52 61.5a7114 7114 0 0 0-1-31.75q-.5-14.75-.5-27.25 0-34.5 4.5-61.5l15.5-100-57.5 14-23 135.5-102.5-113Q398 669 386 675.75T358.5 689L468 810v138q0 10-2.75 30a4386 4386 0 0 0-5.25 39.5c-1.667 13-2.5 22.67-2.5 29 0 13.33 5 22.25 15 26.75q15 6.75 52 6.75M493 642q-59.5 0-114.75-17.25T281.5 576.5l24-32Q342 572 390.75 587T493 602q68.5 0 124.5-22.75t89.5-60.5T740.5 436h40q0 57-38.75 103.75t-104 74.5T493 642m-229.5 10.5q40 0 74.5-14.75t54-36.25L502.5 635 657 592q23.5 16 52.25 25t58.75 9q45.5 0 82.5-19t59.25-51.75T932 482q0-38-17.25-74.5t-47.75-67-71.5-49.5q-18.5-53.5-57.75-91.75t-93-58.75T529.5 120q-51.5 0-98.75 13t-84.5 36.25-58.75 54T266 289q0 17 7.25 31.25t20.25 25.25L266 375q-17-14.5-27-32.75t-12.5-40.75q-40.5 9-72.5 35t-50.5 62.75T85 478.5q0 51 24.25 90.25t64.75 61.5 89.5 22.25" fill="#4f7fff"></path></g>
</svg>