<?xml version="1.0" encoding="UTF-8"?>
<svg version="1.1" xmlns="http://www.w3.org/2000/svg" width="512" height="512">
<path d="M0 0 C1.04542969 -0.03996094 2.09085938 -0.07992188 3.16796875 -0.12109375 C14.86126498 1.67112636 22.16839933 10.128433 30.0390625 18.17578125 C31.27920204 19.42526354 32.52046301 20.6736337 33.76278687 21.92094421 C37.00597253 25.18308435 40.23384946 28.45996177 43.45861816 31.74029541 C46.76135876 35.09447898 50.07856549 38.43429011 53.39453125 41.77539062 C59.88131038 48.31555322 66.35198494 54.87139906 72.8125 61.4375 C78.92912536 56.43421725 84.43588483 50.89088818 89.96884155 45.26462746 C91.6564148 43.55011497 93.3485843 41.84026652 95.04223633 40.13175964 C99.85283935 35.27869173 104.66057558 30.42289225 109.45214844 25.55102539 C112.39522357 22.5593062 115.34807921 19.57754737 118.3074646 16.60196495 C119.42741982 15.47215148 120.54371972 14.33870172 121.65615845 13.20148659 C123.2133868 11.61032715 124.78281176 10.03219055 126.35546875 8.45629883 C127.6861438 7.1077758 127.6861438 7.1077758 129.04370117 5.73200989 C135.06204771 0.74459242 140.96763712 -0.12263353 148.66015625 0.09765625 C156.31212249 0.92258941 160.48386246 4.62748911 165.3671875 10.33984375 C168.37369773 14.70334644 169.12448098 18.48791204 169.1875 23.75 C169.21585938 24.81863281 169.24421875 25.88726562 169.2734375 26.98828125 C168.295109 34.30916314 164.29839439 39.54913852 159.12597656 44.578125 C158.56943893 45.13524673 158.01290131 45.69236847 157.4394989 46.26637268 C155.6200369 48.08307523 153.7868826 49.88523845 151.953125 51.6875 C150.68001362 52.9531414 149.40778966 54.21967601 148.13641357 55.48706055 C144.8046667 58.80361089 141.46108057 62.10796667 138.11480713 65.40985107 C134.69554791 68.78802833 131.28773034 72.17770523 127.87890625 75.56640625 C121.20119602 82.20135124 114.51091035 88.82345829 107.8125 95.4375 C112.68740768 101.38683047 118.06505284 106.75557774 123.55385017 112.13175392 C125.76015694 114.29544182 127.95669 116.46894479 130.15394497 118.64181805 C134.22877935 122.67122124 138.30735954 126.6966378 142.40258789 130.70532227 C145.26697393 133.50992322 148.11865307 136.32692325 150.96264458 139.15219688 C152.03966247 140.21757035 153.12117171 141.27842537 154.20744514 142.33436012 C161.30550256 149.23905291 167.65323961 155.91396017 169.44140625 165.9765625 C169.27540033 173.6909553 168.57319672 179.360309 163.234375 185.1484375 C157.1445758 190.77190073 151.13474519 192.7304037 142.94921875 193.03125 C131.54319065 190.8722011 124.34106219 182.62843485 116.5859375 174.69921875 C115.34579796 173.44973646 114.10453699 172.2013663 112.86221313 170.95405579 C109.61902747 167.69191565 106.39115054 164.41503823 103.16638184 161.13470459 C99.86364124 157.78052102 96.54643451 154.44070989 93.23046875 151.09960938 C86.74368962 144.55944678 80.27301506 138.00360094 73.8125 131.4375 C69.9121138 133.01692818 67.32906855 135.68412698 64.45239258 138.64990234 C63.92981873 139.18021561 63.40724487 139.71052887 62.86883545 140.25691223 C61.73671165 141.40666075 60.60681046 142.55860113 59.47889137 143.71247482 C57.68825249 145.54263068 55.89010781 147.36508654 54.08952332 149.18545532 C48.97156487 154.3613494 43.86324406 159.54659193 38.77026367 164.74707031 C35.65124211 167.93083472 32.51989586 171.10203747 29.38065147 174.2658577 C28.1915173 175.46917959 27.00706227 176.67714539 25.82758522 177.88993454 C12.9026776 191.17459319 12.9026776 191.17459319 3.02734375 192.93359375 C-5.660195 192.71007217 -11.90820145 190.71679855 -18.1875 184.4375 C-21.69638604 179.44882816 -23.31475646 174.80453872 -23.5 168.75 C-23.53738281 167.96238281 -23.57476563 167.17476562 -23.61328125 166.36328125 C-21.99983496 155.27638885 -13.94924651 148.54734275 -6.328125 141.08984375 C-5.05479498 139.82585281 -3.78257449 138.56074325 -2.51141357 137.29457092 C0.81815611 133.98398449 4.16246879 130.68869811 7.51019287 127.39648438 C10.93128112 124.02677604 14.33805201 120.64265931 17.74609375 117.25976562 C24.42104454 110.63824929 31.11167615 104.03282506 37.8125 97.4375 C36.23307182 93.5371138 33.56587302 90.95406855 30.60009766 88.07739258 C30.06978439 87.55481873 29.53947113 87.03224487 28.99308777 86.49383545 C27.84333925 85.36171165 26.69139887 84.23181046 25.53752518 83.10389137 C23.70736932 81.31325249 21.88491346 79.51510781 20.06454468 77.71452332 C14.8886506 72.59656487 9.70340807 67.48824406 4.50292969 62.39526367 C1.31916528 59.27624211 -1.85203747 56.14489586 -5.0158577 53.00565147 C-6.21917959 51.8165173 -7.42714539 50.63206227 -8.63993454 49.45258522 C-15.70611863 42.57775471 -21.82027996 36.51875691 -23.75390625 26.50390625 C-23.74172372 18.69490536 -21.79960594 12.41163934 -16.47265625 6.55078125 C-11.44090188 2.00348463 -6.8401651 0.14163557 0 0 Z " fill="#010000" transform="translate(45.1875,292.5625)"/>
<path d="M0 0 C6.16629492 3.94520006 11.06710522 9.40748119 16.161026 14.61575317 C17.40116555 15.86523546 18.64242651 17.11360562 19.88475037 18.36091614 C23.12793603 21.62305627 26.35581296 24.89993369 29.58058167 28.18026733 C32.88332226 31.5344509 36.20052899 34.87426203 39.51649475 38.21536255 C46.00327388 44.75552514 52.47394844 51.31137099 58.9344635 57.87747192 C62.83484971 56.29804374 65.41789496 53.63084494 68.29457092 50.66506958 C68.81714478 50.13475632 69.33971863 49.60444305 69.87812805 49.05805969 C71.01025185 47.90831117 72.14015304 46.75637079 73.26807213 45.6024971 C75.05871101 43.77234124 76.85685569 41.94988538 78.65744019 40.1295166 C83.77539863 34.95362252 88.88371944 29.76837999 93.97669983 24.56790161 C97.09572139 21.3841372 100.22706764 18.21293445 103.36631203 15.04911423 C104.5554462 13.84579234 105.73990123 12.63782653 106.91937828 11.42503738 C119.8442859 -1.85962127 119.8442859 -1.85962127 129.71961975 -3.61862183 C138.4071585 -3.39510025 144.65516495 -1.40182662 150.9344635 4.87747192 C154.44334954 9.86614376 156.06171997 14.5104332 156.2469635 20.56497192 C156.30303772 21.74639771 156.30303772 21.74639771 156.36024475 22.95169067 C154.74679846 34.03858307 146.69621001 40.76762918 139.0750885 48.22512817 C137.80175848 49.48911911 136.52953799 50.75422867 135.25837708 52.020401 C131.92880739 55.33098744 128.58449471 58.62627382 125.23677063 61.91848755 C121.81568238 65.28819588 118.40891149 68.67231262 115.00086975 72.0552063 C108.32591896 78.67672264 101.63528735 85.28214686 94.9344635 91.87747192 C96.51389168 95.77785813 99.18109048 98.36090338 102.14686584 101.23757935 C102.67717911 101.7601532 103.20749237 102.28272705 103.75387573 102.82113647 C104.90362426 103.95326027 106.05556463 105.08316147 107.20943832 106.21108055 C109.03959418 108.00171944 110.86205004 109.79986411 112.68241882 111.60044861 C117.8583129 116.71840705 123.04355543 121.82672787 128.24403381 126.91970825 C131.42779823 130.03872981 134.59900097 133.17007606 137.7628212 136.30932045 C138.96614309 137.49845462 140.17410889 138.68290965 141.38689804 139.8623867 C148.45308213 146.73721721 154.56724346 152.79621501 156.50086975 162.81106567 C156.48868722 170.62006657 154.54656944 176.90333259 149.21961975 182.76419067 C144.18786538 187.31148729 139.5871286 189.17333635 132.7469635 189.31497192 C131.70153381 189.35493286 130.65610413 189.3948938 129.57899475 189.43606567 C117.88569852 187.64384557 110.57856417 179.18653893 102.707901 171.13919067 C101.46776146 169.88970838 100.22650049 168.64133823 98.98417664 167.39402771 C95.74099097 164.13188757 92.51311404 160.85501015 89.28834534 157.57467651 C85.98560474 154.22049294 82.66839802 150.88068182 79.35243225 147.5395813 C72.86565312 140.9994187 66.39497856 134.44357286 59.9344635 127.87747192 C58.82623475 128.81404873 57.7199208 129.75289149 56.61439514 130.69265747 C55.68996361 131.4765107 55.68996361 131.4765107 54.74685669 132.27619934 C51.1413251 135.46173266 47.95425458 139.06373435 44.68055725 142.58450317 C41.5869667 145.16762928 39.92036865 145.72231588 35.9344635 145.87747192 C35.27059631 145.62868286 34.60672913 145.3798938 33.92274475 145.12356567 C31.61985276 144.60657829 31.61985276 144.60657829 29.10243225 146.97512817 C28.09571337 147.94992994 27.10259816 148.93893394 26.1219635 149.93997192 C25.60698303 150.41885864 25.09200256 150.89774536 24.56141663 151.3911438 C22.86382724 153.00936641 22.86382724 153.00936641 20.9344635 155.87747192 C21.16609701 158.93920417 21.16609701 158.93920417 21.9344635 161.87747192 C20.10033334 168.16893515 15.27450166 172.01235144 10.7469635 176.50247192 C9.90842834 177.36098755 9.06989319 178.21950317 8.20594788 179.10403442 C1.73619764 185.56873411 -3.02337492 189.30336891 -12.5030365 189.31497192 C-19.49162381 189.11484056 -23.95263351 187.83596504 -29.0342865 183.00637817 C-34.09340117 177.52221494 -36.34974429 173.14612158 -36.4405365 165.56497192 C-36.46889587 164.49633911 -36.49725525 163.4277063 -36.526474 162.32669067 C-35.5481455 155.00580878 -31.55143089 149.7658334 -26.37901306 144.73684692 C-25.82247543 144.17972519 -25.26593781 143.62260345 -24.6925354 143.04859924 C-22.8730734 141.23189669 -21.0399191 139.42973348 -19.2061615 137.62747192 C-17.93305012 136.36183053 -16.66082616 135.09529591 -15.38945007 133.82791138 C-12.0577032 130.51136103 -8.71411707 127.20700525 -5.36784363 123.90512085 C-1.94858441 120.52694359 1.45923316 117.1372667 4.86805725 113.74856567 C11.54576748 107.11362068 18.23605315 100.49151364 24.9344635 93.87747192 C20.05955583 87.92814145 14.68191066 82.55939419 9.19311333 77.183218 C6.98680656 75.0195301 4.7902735 72.84602713 2.59301853 70.67315388 C-1.48181584 66.64375069 -5.56039604 62.61833412 -9.65562439 58.60964966 C-12.52001043 55.80504871 -15.37168957 52.98804867 -18.21568108 50.16277504 C-19.29269897 49.09740157 -20.37420821 48.03654655 -21.46048164 46.9806118 C-28.55853906 40.07591901 -34.90627611 33.40101175 -36.69444275 23.33840942 C-36.52843683 15.62401662 -35.82623322 9.95466293 -30.4874115 4.16653442 C-21.32295864 -4.29613601 -10.9525215 -5.61228785 0 0 Z " fill="#010000" transform="translate(334.06553649902344,30.122528076171875)"/>
<path d="M0 0 C22.64411094 11.9131668 39.94008317 31.96031918 47.625 56.375 C55.11170464 81.82555402 53.16000349 108.51136641 40.74609375 132.10546875 C35.86446652 140.89328756 29.87751747 148.14132367 22.75 155.1875 C21.56470703 156.38826172 21.56470703 156.38826172 20.35546875 157.61328125 C2.41434599 174.84032947 -21.96823195 182.77976511 -46.53710938 182.60717773 C-72.97919693 181.82189419 -97.52023045 170.90169357 -115.75195312 151.59716797 C-135.89594874 128.93856187 -141.53343306 102.85857095 -140.25 73.1875 C-139.82811637 68.34297153 -138.74011277 63.81528418 -137.25 59.1875 C-137.05132324 58.55730957 -136.85264648 57.92711914 -136.64794922 57.27783203 C-131.95793466 42.71595162 -124.37632006 30.66523024 -114.25 19.1875 C-113.69957031 18.55328125 -113.14914062 17.9190625 -112.58203125 17.265625 C-100.76342429 4.54238393 -80.18970901 -7.40612728 -62.75 -8.375 C-60.40625 -8.44140625 -60.40625 -8.44140625 -58.25 -7.8125 C-57.6725 -6.98878906 -57.095 -6.16507812 -56.5 -5.31640625 C-54.04778073 -2.58746084 -53.71340934 -2.4277535 -50.28125 -2.1484375 C-48.77083512 -2.13521145 -47.25998321 -2.14904542 -45.75 -2.1875 C-44.99074219 -2.16816406 -44.23148437 -2.14882813 -43.44921875 -2.12890625 C-41.25702022 -2.14810238 -39.37035311 -2.25103229 -37.25 -2.8125 C-34.87228815 -5.17934938 -34.87228815 -5.17934938 -33.25 -7.8125 C-22.93020841 -11.25243053 -9.35918874 -4.45443833 0 0 Z M-84.1796875 51.67578125 C-94.3697126 64.03839661 -97.55482918 77.2553402 -96.5 92.93603516 C-94.965816 106.75268049 -87.38151934 118.49516713 -76.8671875 127.3359375 C-63.94957723 136.47466476 -50.11204581 140.23373456 -34.328125 137.72265625 C-19.84132465 134.18469489 -8.08684842 126.39559088 0.1796875 113.9765625 C7.39905727 101.15409978 9.83066407 87.44434517 6.625 73 C2.47565804 58.5349329 -7.10697977 46.54133275 -20.25 39.1875 C-43.00215565 29.26368743 -66.89563394 33.4315025 -84.1796875 51.67578125 Z " fill="#0083EF" transform="translate(438.25,302.8125)"/>
<path d="M0 0 C17.87530704 15.22682059 29.08771752 36.79733716 32.5 59.9375 C34.03901227 84.12865018 31.1260191 108.23599006 16.26171875 128.2109375 C14.5 129.9375 14.5 129.9375 10.8125 131 C9.1728125 130.9690625 9.1728125 130.9690625 7.5 130.9375 C3.34058875 131.39581351 1.18711077 133.7198577 -1.75 136.5625 C-3.08804688 137.81933594 -3.08804688 137.81933594 -4.453125 139.1015625 C-6.84021828 141.82232068 -6.84021828 141.82232068 -6.484375 145.3984375 C-6.50154372 149.28715166 -7.28478014 150.78686654 -9.93945312 153.59326172 C-12.63591592 155.91596575 -15.54813725 157.47708596 -18.75 159 C-19.4394873 159.33652588 -20.12897461 159.67305176 -20.83935547 160.01977539 C-44.63434428 171.20465248 -72.07140422 172.49310158 -96.8125 163.76953125 C-99.77535609 162.60177292 -102.63279199 161.32223114 -105.5 159.9375 C-106.386875 159.51984375 -107.27375 159.1021875 -108.1875 158.671875 C-130.67098962 147.29941223 -147.59157406 126.76836427 -155.5 102.9375 C-162.96196531 77.46462839 -160.89549069 50.58605029 -148.49609375 27.01953125 C-143.61446652 18.23171244 -137.62751747 10.98367633 -130.5 3.9375 C-129.70980469 3.13699219 -128.91960937 2.33648437 -128.10546875 1.51171875 C-92.63331437 -32.54860859 -36.77615421 -30.03825083 0 0 Z M-102.5 37.9375 C-112.89337928 50.17859115 -116.39902799 64.18786145 -115.5 79.9375 C-113.3060045 95.14672306 -104.95345984 107.46042042 -92.875 116.75 C-80.01597566 125.09847426 -65.74396994 126.9862405 -50.85546875 124.2734375 C-36.69712256 120.41054352 -25.30628736 111.48433082 -17.625 99.0625 C-10.78956269 86.43835128 -8.98790848 71.82600163 -12.88769531 57.88793945 C-17.23720607 44.47694795 -26.26767319 33.65209676 -38.66552734 26.99536133 C-60.28349327 16.00224876 -85.72925945 19.87421683 -102.5 37.9375 Z " fill="#0083EE" transform="translate(181.5,50.0625)"/>
<path d="M0 0 C0.99 -0.01546875 0.99 -0.01546875 2 -0.03125 C5.08765505 0.78890837 6.08820018 1.91508262 8 4.5 C8.60155133 7.74290317 8.52189364 10.95440172 8.48101807 14.24420166 C8.48443577 15.24400614 8.48785347 16.24381061 8.49137473 17.27391219 C8.49797845 20.6337435 8.47593574 23.99278101 8.45410156 27.35253906 C8.45297363 29.7570392 8.45360589 32.16154071 8.45587158 34.56604004 C8.4567833 39.74768031 8.44541699 44.92914013 8.42292023 50.1107254 C8.39041493 57.60241086 8.37999474 65.09399888 8.37496826 72.58574721 C8.36621328 84.74048826 8.33959224 96.89512194 8.30175781 109.04980469 C8.26504295 120.85709089 8.23672864 132.66434793 8.21972656 144.47167969 C8.21867567 145.19945571 8.21762477 145.92723174 8.21654204 146.67706159 C8.21132189 150.32809225 8.20626706 153.97912312 8.20129442 157.63015413 C8.15982607 187.92017962 8.08907487 218.21007491 8 248.5 C9.25382351 248.49631283 10.50764702 248.49262566 11.79946518 248.48882675 C41.54902678 248.40223364 71.29855593 248.33625717 101.04821263 248.29573868 C104.70824875 248.29073573 108.3682846 248.28555846 112.02832031 248.28027344 C112.75698108 248.2792242 113.48564184 248.27817495 114.23638323 248.27709392 C126.04159958 248.25967896 137.84673818 248.2281353 149.65190837 248.19138882 C161.76113572 248.15400967 173.87032228 248.13177057 185.97960496 248.12364602 C193.454373 248.11815193 200.92892129 248.10078685 208.4036217 248.06833413 C214.13098766 248.04473137 219.85821217 248.0421725 225.58561707 248.04756927 C227.93828436 248.04646565 230.2909597 248.03846714 232.64357758 248.0231781 C235.84796146 248.00336902 239.05139389 248.0080281 242.25579834 248.01898193 C243.19353836 248.00733057 244.13127838 247.9956792 245.09743476 247.98367476 C251.3812853 248.04200914 251.3812853 248.04200914 254.57361221 250.40506363 C256.10479131 252.65390704 256.56776885 253.80234688 256.5625 256.5 C256.58441406 257.16 256.60632813 257.82 256.62890625 258.5 C255.60148075 261.76734071 253.89031643 262.70926606 251 264.5 C247.72418675 265.08213243 244.49322152 265.02256678 241.17350769 264.98101807 C240.17693234 264.98443577 239.18035699 264.98785347 238.15358239 264.99137473 C234.81067412 264.99796892 231.46856686 264.97595139 228.12573242 264.95410156 C225.73093688 264.95297342 223.33613995 264.95360629 220.94134521 264.95587158 C215.11121096 264.95690158 209.28133954 264.939549 203.45126536 264.91412094 C196.66685306 264.88552007 189.88247807 264.87953971 183.09801392 264.87496826 C170.99928775 264.86621616 158.90066952 264.83960292 146.80200195 264.80175781 C135.05005432 264.76503551 123.29813601 264.73672484 111.54614258 264.71972656 C110.82161627 264.71867567 110.09708996 264.71762477 109.35060831 264.71654204 C105.71583235 264.71132184 102.08105619 264.70626702 98.44627988 264.70129442 C68.29744265 264.65983502 38.14873631 264.58909137 8 264.5 C8.00368717 265.74774798 8.00737434 266.99549597 8.01117325 268.2810545 C8.09778289 297.89233702 8.16375112 327.50358691 8.20426132 357.11496503 C8.20926421 360.7586911 8.2144415 364.40241691 8.21972656 368.04614258 C8.2207758 368.77155042 8.22182505 369.49695825 8.22290608 370.24434815 C8.24031684 381.99392368 8.2718582 393.74342103 8.30861118 405.49295016 C8.346002 417.54681171 8.3682319 429.60063226 8.37635398 441.65454942 C8.38135255 448.42602035 8.39338649 455.19732815 8.42292023 461.96874046 C8.45001741 468.33886351 8.45845642 474.70873562 8.45243073 481.07891083 C8.4535335 483.41987025 8.46152097 485.76083784 8.4768219 488.10174751 C8.49666008 491.29264497 8.49196114 494.48258917 8.48101807 497.67350769 C8.49266943 498.60444392 8.5043208 499.53538015 8.51632524 500.49452657 C8.47715924 504.70619627 8.35839341 506.92153866 6.09493637 510.57484913 C3.83448753 512.6520984 3.0178119 513.16270079 0 513.0625 C-0.66 513.06378906 -1.32 513.06507813 -2 513.06640625 C-5.06824602 512.19746939 -6.08836743 511.08248641 -8 508.5 C-8.60159054 505.25711131 -8.52189352 502.04558839 -8.48101807 498.75579834 C-8.48443577 497.75599386 -8.48785347 496.75618939 -8.49137473 495.72608781 C-8.49797845 492.3662565 -8.47593574 489.00721899 -8.45410156 485.64746094 C-8.45297363 483.2429608 -8.45360589 480.83845929 -8.45587158 478.43395996 C-8.4567833 473.25231969 -8.44541699 468.07085987 -8.42292023 462.8892746 C-8.39041493 455.39758914 -8.37999474 447.90600112 -8.37496826 440.41425279 C-8.36621328 428.25951174 -8.33959224 416.10487806 -8.30175781 403.95019531 C-8.26504295 392.14290911 -8.23672864 380.33565207 -8.21972656 368.52832031 C-8.21867567 367.80054429 -8.21762477 367.07276826 -8.21654204 366.32293841 C-8.21132189 362.67190775 -8.20626706 359.02087688 -8.20129442 355.36984587 C-8.15982607 325.07982038 -8.08907487 294.78992509 -8 264.5 C-9.24774798 264.50368717 -10.49549597 264.50737434 -11.7810545 264.51117325 C-41.39233702 264.59778289 -71.00358691 264.66375112 -100.61496503 264.70426132 C-104.2586911 264.70926421 -107.90241691 264.7144415 -111.54614258 264.71972656 C-112.63425433 264.72130043 -112.63425433 264.72130043 -113.74434815 264.72290608 C-125.49392368 264.74031684 -137.24342103 264.7718582 -148.99295016 264.80861118 C-161.04681171 264.846002 -173.10063226 264.8682319 -185.15454942 264.87635398 C-191.92602035 264.88135255 -198.69732815 264.89338649 -205.46874046 264.92292023 C-211.83886351 264.95001741 -218.20873562 264.95845642 -224.57891083 264.95243073 C-226.91987025 264.9535335 -229.26083784 264.96152097 -231.60174751 264.9768219 C-234.79264497 264.99666008 -237.98258917 264.99196114 -241.17350769 264.98101807 C-242.10444392 264.99266943 -243.03538015 265.0043208 -243.99452657 265.01632524 C-248.20619627 264.97715924 -250.42153866 264.85839341 -254.07484913 262.59493637 C-256.1520984 260.33448753 -256.66270079 259.5178119 -256.5625 256.5 C-256.56378906 255.84 -256.56507813 255.18 -256.56640625 254.5 C-255.69746939 251.43175398 -254.58248641 250.41163257 -252 248.5 C-248.75711131 247.89840946 -245.54558839 247.97810648 -242.25579834 248.01898193 C-241.25599386 248.01556423 -240.25618939 248.01214653 -239.22608781 248.00862527 C-235.8662565 248.00202155 -232.50721899 248.02406426 -229.14746094 248.04589844 C-226.7429608 248.04702637 -224.33845929 248.04639411 -221.93395996 248.04412842 C-216.75231969 248.0432167 -211.57085987 248.05458301 -206.3892746 248.07707977 C-198.89758914 248.10958507 -191.40600112 248.12000526 -183.91425279 248.12503174 C-171.75951174 248.13378672 -159.60487806 248.16040776 -147.45019531 248.19824219 C-135.64290911 248.23495705 -123.83565207 248.26327136 -112.02832031 248.28027344 C-111.30054429 248.28132433 -110.57276826 248.28237523 -109.82293841 248.28345796 C-106.17190775 248.28867811 -102.52087688 248.29373294 -98.86984587 248.29870558 C-68.57982038 248.34017393 -38.28992509 248.41092513 -8 248.5 C-8.00368717 247.24617649 -8.00737434 245.99235298 -8.01117325 244.70053482 C-8.09776636 214.95097322 -8.16374283 185.20144407 -8.20426132 155.45178737 C-8.20926427 151.79175125 -8.21444154 148.1317154 -8.21972656 144.47167969 C-8.2207758 143.74301892 -8.22182505 143.01435816 -8.22290608 142.26361677 C-8.24032104 130.45840042 -8.2718647 118.65326182 -8.30861118 106.84809163 C-8.34599033 94.73886428 -8.36822943 82.62967772 -8.37635398 70.52039504 C-8.38184807 63.045627 -8.39921315 55.57107871 -8.43166587 48.0963783 C-8.45526863 42.36901234 -8.4578275 36.64178783 -8.45243073 30.91438293 C-8.45353435 28.56171564 -8.46153286 26.2090403 -8.4768219 23.85642242 C-8.49663098 20.65203854 -8.4919719 17.44860611 -8.48101807 14.24420166 C-8.49266943 13.30646164 -8.5043208 12.36872162 -8.51632524 11.40256524 C-8.45799582 5.11924965 -8.45799582 5.11924965 -6.09493637 1.92419052 C-3.83240086 0.38606188 -2.7100753 -0.04234493 0 0 Z " fill="#000000" transform="translate(256,-0.5)"/>
<path d="M0 0 C22.64411094 11.9131668 39.94008317 31.96031918 47.625 56.375 C55.11170464 81.82555402 53.16000349 108.51136641 40.74609375 132.10546875 C35.86446652 140.89328756 29.87751747 148.14132367 22.75 155.1875 C21.56470703 156.38826172 21.56470703 156.38826172 20.35546875 157.61328125 C2.41434599 174.84032947 -21.96823195 182.77976511 -46.53710938 182.60717773 C-72.97919693 181.82189419 -97.52023045 170.90169357 -115.75195312 151.59716797 C-135.89594874 128.93856187 -141.53343306 102.85857095 -140.25 73.1875 C-139.82811637 68.34297153 -138.74011277 63.81528418 -137.25 59.1875 C-137.05132324 58.55730957 -136.85264648 57.92711914 -136.64794922 57.27783203 C-131.95793466 42.71595162 -124.37632006 30.66523024 -114.25 19.1875 C-113.69957031 18.55328125 -113.14914062 17.9190625 -112.58203125 17.265625 C-100.76342429 4.54238393 -80.18970901 -7.40612728 -62.75 -8.375 C-59.26470573 -8.20635673 -58.40267707 -7.9270078 -55.5 -5.75 C-54.25 -2.8125 -54.25 -2.8125 -54.75 0.8125 C-56.3552597 4.42433431 -56.9677144 5.20950523 -60.25 7.1875 C-62.77070959 8.03335684 -65.25530402 8.79058434 -67.8125 9.5 C-88.00558096 15.52217828 -103.73717134 28.74929809 -114.4296875 46.80078125 C-123.9755607 64.56102173 -127.51094727 85.47422626 -122.2265625 105.10546875 C-118.14501735 117.98682525 -113.26641535 129.59559422 -103.7890625 139.41015625 C-102.25 141.1875 -102.25 141.1875 -102.25 143.1875 C-101.65832031 143.45304688 -101.06664062 143.71859375 -100.45703125 143.9921875 C-98.1931458 145.21829183 -96.7610593 146.50990115 -94.9375 148.3125 C-86.68214319 155.68831412 -75.97230071 160.68277055 -65.25 163.1875 C-64.0846875 163.53296875 -62.919375 163.8784375 -61.71875 164.234375 C-47.60078171 167.74127109 -30.76286127 166.19104425 -17.25 161.1875 C-16.22261719 160.836875 -15.19523437 160.48625 -14.13671875 160.125 C4.19785125 153.27628903 19.52569974 138.91716469 27.68896484 121.14306641 C35.50927999 102.65986156 39.17377049 79.40051398 31.75 60.1875 C27.96783328 51.39357327 23.50891131 42.85535405 17.75 35.1875 C17.33878906 34.61257813 16.92757812 34.03765625 16.50390625 33.4453125 C5.76863953 19.62007287 -11.91812276 10.97076024 -28.625 7.1875 C-33.73085106 5.77898936 -33.73085106 5.77898936 -35.25 3.1875 C-36.77696078 -2.81127451 -36.77696078 -2.81127451 -35 -6.1875 C-26.87144447 -13.73544442 -8.54225225 -4.06562331 0 0 Z " fill="#000101" transform="translate(438.25,302.8125)"/>
<path d="M0 0 C17.87530704 15.22682059 29.08771752 36.79733716 32.5 59.9375 C34.03202947 84.01889008 31.20332049 108.3495163 16.2578125 128.1875 C14.5 129.9375 14.5 129.9375 10.875 131.375 C7.5 130.9375 7.5 130.9375 4.5625 128.9375 C2.64266486 126.14501252 1.6363388 124.47314539 1.87890625 121.0625 C3.03915527 117.09284296 5.45820109 113.74633426 7.6171875 110.25 C16.96629045 93.80178569 19.43549051 72.82296384 14.8125 54.5 C9.10088143 33.79887779 -2.70175821 15.78894773 -21.51904297 4.75341797 C-40.83596959 -5.80917407 -62.72857512 -10.10546471 -84.58178711 -4.73046875 C-104.45197878 1.15769893 -122.42050983 14.44291493 -132.625 32.62890625 C-143.57683381 53.04254543 -146.09025109 75.07301973 -139.45703125 97.45703125 C-132.11851544 118.57091805 -119.25688988 134.53444876 -99.4375 144.875 C-80.55942743 153.73006891 -59.60696478 155.99075466 -39.5 149.9375 C-32.79931403 147.49833816 -26.1576277 144.75840776 -20.26171875 140.71875 C-17.5 138.9375 -17.5 138.9375 -13.875 138.875 C-9.81749647 140.15236222 -8.49600421 141.19499211 -6.5 144.9375 C-6.375 147.9375 -6.375 147.9375 -7.5 150.9375 C-25.18762328 167.25659185 -50.38343874 169.76906551 -73.29248047 169.12109375 C-84.62000479 168.47272274 -95.32847226 164.84988556 -105.5 159.9375 C-106.386875 159.51984375 -107.27375 159.1021875 -108.1875 158.671875 C-130.67098962 147.29941223 -147.59157406 126.76836427 -155.5 102.9375 C-162.96196531 77.46462839 -160.89549069 50.58605029 -148.49609375 27.01953125 C-143.61446652 18.23171244 -137.62751747 10.98367633 -130.5 3.9375 C-129.70980469 3.13699219 -128.91960937 2.33648437 -128.10546875 1.51171875 C-92.63331437 -32.54860859 -36.77615421 -30.03825083 0 0 Z " fill="#000001" transform="translate(181.5,50.0625)"/>
<path d="M0 0 C7.16316184 4.87850278 13.14833562 12.11339366 19.18805122 18.296278 C22.32254528 21.50018303 25.47432277 24.68704322 28.62304688 27.87695312 C32.61115818 31.91909399 36.59388061 35.9661493 40.55834961 40.03149414 C43.78137173 43.33561624 47.02120732 46.62238697 50.27299309 49.89819527 C51.50448079 51.14510073 52.72965738 52.39827281 53.94824409 53.65778923 C55.64955827 55.41463329 57.37150851 57.14846176 59.09985352 58.87866211 C59.59511032 59.40065689 60.09036713 59.92265167 60.60063171 60.46046448 C63.30214331 63.11572726 64.84686346 63.97950412 68.64207458 64.48745728 C72.06660843 63.99033071 73.21286528 63.67730268 75.62695312 61.32202148 C76.29927979 60.67796356 76.97160645 60.03390564 77.66430664 59.37033081 C78.82047485 58.19701706 78.82047485 58.19701706 80 57 C80.94822647 56.05362343 81.89673107 55.10752549 82.84545898 54.16165161 C85.63636802 51.36188836 88.39903341 48.53542297 91.15748596 45.703722 C94.28494543 42.49890466 97.43109159 39.31248619 100.57421875 36.12304688 C104.55492853 32.08227759 108.52965594 28.03615903 112.48291016 23.96850586 C115.69723754 20.66215409 118.93078633 17.37573671 122.17811584 14.10180473 C123.40689472 12.85577624 124.62848255 11.60261233 125.84251404 10.34221077 C127.53896076 8.58288633 129.25888973 6.85016669 130.98632812 5.12133789 C131.47798965 4.59934311 131.96965118 4.07734833 132.47621155 3.53953552 C135.29369653 0.77823143 137.35122125 -0.32628606 141.21960449 -0.41383362 C145 0 145 0 147.5 1.5 C149.57846464 4.96410774 149.74807348 8.10756881 149 12 C147.46497902 14.62901089 145.43187346 16.57400303 143.23266602 18.65966797 C142.61979736 19.27209854 142.00692871 19.88452911 141.37548828 20.51551819 C139.35319593 22.52717313 137.30421267 24.50912712 135.25390625 26.4921875 C133.84201626 27.88660757 132.43196012 29.2828867 131.02366638 30.68093872 C127.31761832 34.35082976 123.5886272 37.99649267 119.85388184 41.637146 C115.31249567 46.0724431 110.79788939 50.53496227 106.27995968 54.99412727 C102.76650051 58.46105661 99.24897284 61.92350372 95.71864319 65.3732605 C95.07203232 66.00667862 94.42542145 66.64009674 93.75921631 67.29270935 C92.54902051 68.47789021 91.33688128 69.66109104 90.1224823 70.84196472 C86.22391018 74.62565651 86.22391018 74.62565651 84.5 79.625 C85.80752905 88.45082107 96.89054884 96.00924098 103.08051682 102.15568161 C104.9320531 103.99431891 106.78032826 105.83618093 108.62783813 107.67886353 C112.54073615 111.58041488 116.45758826 115.47798145 120.375 119.375 C124.93764907 123.91403575 129.49865652 128.45469664 134.05550003 132.99956131 C135.87769321 134.81526706 137.70286619 136.62794107 139.52816772 138.44052124 C140.6379029 139.54662626 141.74749925 140.65287059 142.85693359 141.75927734 C143.36598236 142.26315979 143.87503113 142.76704224 144.39950562 143.28619385 C147.50729345 146.39350793 148.87264425 147.87502422 149.375 152.3125 C149 156 149 156 146.875 158.9375 C143.44976426 161.39473433 142.12615589 161.47799775 138 161 C135.67521667 159.48388672 135.67521667 159.48388672 133.42260742 157.3046875 C132.12678238 156.06477051 132.12678238 156.06477051 130.80477905 154.79980469 C129.87920197 153.87586914 128.95362488 152.95193359 128 152 C127.51844578 151.52276489 127.03689156 151.04552979 126.54074478 150.55383301 C123.32273512 147.36087282 120.14140588 144.13326334 116.97088051 140.89321899 C113.96106096 137.8215219 110.93495324 134.76590201 107.91210938 131.70703125 C104.09227304 127.83921849 100.27732074 123.96687659 96.47729492 120.07958984 C93.37948202 116.91149176 90.267187 113.7582807 87.14476585 110.61444092 C85.96440642 109.42052773 84.7894684 108.22122836 83.62023354 107.01641846 C81.98876915 105.33661274 80.33944487 103.67647867 78.68481445 102.01953125 C78.21140121 101.52297531 77.73798798 101.02641937 77.25022888 100.51481628 C73.72251607 97.03950753 70.90662438 96.17271376 66 96 C63.79611481 97.04691146 63.79611481 97.04691146 62.12109375 98.90625 C61.11925049 99.88078125 61.11925049 99.88078125 60.09716797 100.875 C59.05906982 101.926875 59.05906982 101.926875 58 103 C56.5133395 104.38715572 55.02502811 105.77254401 53.53515625 107.15625 C52.04162345 108.60143572 50.55075165 110.04937633 49.0625 111.5 C48.29615234 112.22058594 47.52980469 112.94117188 46.74023438 113.68359375 C43.35858797 116.99634922 41.25729691 119.1027595 39.93359375 123.71875 C39.84324951 126.9233776 39.84324951 126.9233776 40.80859375 129.54296875 C41 132 41 132 39.96142578 133.51025391 C38.39442352 135.19751807 36.7625925 136.75958532 35.0625 138.3125 C34.48564453 138.86228516 33.90878906 139.41207031 33.31445312 139.97851562 C31.88938934 141.33291509 30.44634142 142.66834644 29 144 C28.01 143.67 27.02 143.34 26 143 C22.5674372 142.46155878 20.11646426 142.28194208 17.1171875 144.2109375 C14.05318085 146.85317805 11.27857366 149.70215394 8.515625 152.65625 C7.66484375 153.5534375 6.8140625 154.450625 5.9375 155.375 C4.77541016 156.65503906 4.77541016 156.65503906 3.58984375 157.9609375 C0.34735799 160.51384484 -1.91351102 160.8579436 -6 161 C-9.70552932 159.06668035 -10.75123352 157.64679286 -12.25 153.75 C-11.6599444 144.89916601 0.13713411 136.74538571 6.26571274 130.65912247 C8.15085196 128.78687832 10.03273382 126.91141256 11.91384888 125.03512573 C15.89807758 121.06224587 19.88625922 117.09334906 23.875 113.125 C28.52025428 108.50335742 33.16386853 103.88009101 37.80331802 99.2526207 C39.65875004 97.40367675 41.51716211 95.55776384 43.3757019 93.71194458 C44.50566006 92.58561657 45.63547939 91.45914926 46.76513672 90.33251953 C47.54273598 89.56266975 47.54273598 89.56266975 48.33604431 88.77726746 C51.17426688 85.93946981 52.79936961 84.29561641 53.42196655 80.27505493 C52.83813319 75.74368554 50.41197336 73.62913526 47.24853516 70.59912109 C46.6372728 69.99019516 46.02601044 69.38126923 45.39622498 68.75389099 C43.37409298 66.74612448 41.33178489 64.76023263 39.2890625 62.7734375 C37.87993177 61.38058166 36.4722664 59.9862419 35.06600952 58.59048462 C31.36078327 54.91949787 27.63879349 51.26600917 23.91217041 47.61676025 C17.9500499 41.77301344 12.01304601 35.90377765 6.07722092 30.03334427 C4.00083733 27.98488585 1.9170092 25.9442448 -0.1680603 23.90463257 C-1.44212131 22.65062004 -2.71602508 21.39644772 -3.98974609 20.14208984 C-4.86260506 19.29415611 -4.86260506 19.29415611 -5.75309753 18.42909241 C-10.87051789 13.36854356 -10.87051789 13.36854356 -12 10 C-11.87085587 6.31939225 -11.77859391 3.9283235 -9.375 1.0625 C-5.84306842 -0.51757465 -3.85071526 -0.64178588 0 0 Z " fill="#E54040" transform="translate(325,43)"/>
<path d="M0 0 C7.11081606 5.1008606 13.11135707 12.06155576 19.21861649 18.296278 C22.36014116 21.49927128 25.517552 24.6865722 28.671875 27.87695312 C32.66739671 31.92047039 36.65811497 35.96845192 40.63378906 40.03149414 C43.86549977 43.33339526 47.11161696 46.6205022 50.36787033 49.89819527 C51.60207017 51.14597841 52.83083947 52.39915761 54.05397415 53.65778923 C55.76015962 55.41217795 57.48410634 57.1470685 59.21337891 58.87866211 C59.71223099 59.40065689 60.21108307 59.92265167 60.72505188 60.46046448 C63.18419035 62.88447946 64.69111316 63.9520196 68.13902283 64.4875946 C71.2354458 63.95987311 72.32515919 63.45937018 74.56225586 61.31982422 C75.24359589 60.67575623 75.92493591 60.03168823 76.62692261 59.36810303 C77.41003815 58.58662903 78.19315369 57.80515503 79 57 C79.45477345 56.54954567 79.90954689 56.09909134 80.37810135 55.63498688 C83.67659629 52.36251502 86.93677942 49.05360377 90.18805122 45.73428726 C93.32347017 42.53736407 96.47480599 39.35616296 99.62304688 36.171875 C103.6097156 32.1372444 107.59159625 28.09816669 111.55834961 24.04394531 C114.78353391 20.74847626 118.02320536 17.46788391 121.27299309 14.19668198 C122.50358521 12.95252598 123.72875323 11.70297994 124.94824409 10.44794083 C126.6517656 8.69608599 128.37317642 6.96385731 130.09985352 5.23486328 C130.84273872 4.45726402 130.84273872 4.45726402 131.60063171 3.66395569 C135.19364055 0.12211755 137.98138917 -0.88014636 143 -1 C146.70552932 0.93331965 147.75123352 2.35320714 149.25 6.25 C148.65846581 15.1230129 136.90344839 23.14535551 130.73428726 29.18805122 C127.53736407 32.32347017 124.35616296 35.47480599 121.171875 38.62304688 C117.1372444 42.6097156 113.09816669 46.59159625 109.04394531 50.55834961 C105.74847626 53.78353391 102.46788391 57.02320536 99.19668198 60.27299309 C97.95252598 61.50358521 96.70297994 62.72875323 95.44794083 63.94824409 C93.69608599 65.6517656 91.96385731 67.37317642 90.23486328 69.09985352 C89.71646378 69.59511032 89.19806427 70.09036713 88.66395569 70.60063171 C85.12896064 74.1866986 84.01231609 76.97128586 84 82 C84.89379264 84.06766568 84.89379264 84.06766568 86.63354492 85.62963867 C87.28656586 86.30183441 87.93958679 86.97403015 88.61239624 87.66659546 C89.40030548 88.43661896 90.18821472 89.20664246 91 90 C91.92060211 90.93752106 92.84120422 91.87504211 93.78970337 92.8409729 C96.52299388 95.62284863 99.28254112 98.37722016 102.04995155 101.12511635 C103.89756452 102.95982507 105.74191181 104.79776295 107.585495 106.63652039 C111.49167416 110.53135271 115.40180315 114.42220449 119.3125 118.3125 C123.8643651 122.84073493 128.41458097 127.37060236 132.96062279 131.90468407 C134.77667029 133.71425626 136.59570385 135.52078977 138.41487122 137.32722473 C139.52453068 138.43325287 140.63405067 139.53942097 141.7434082 140.64575195 C142.24886169 141.14603912 142.75431519 141.64632629 143.27508545 142.16177368 C148.80002409 147.6858726 148.80002409 147.6858726 149.4375 151.875 C149 155 149 155 146.9375 157.875 C144 160 144 160 140.6875 160.75 C131.54807815 158.89113454 124.27877342 148.39950519 117.84431839 141.91948318 C116.00568109 140.0679469 114.16381907 138.21967174 112.32113647 136.37216187 C108.41958512 132.45926385 104.52201855 128.54241174 100.625 124.625 C96.08596425 120.06235093 91.54530336 115.50134348 87.00043869 110.94449997 C85.18473294 109.12230679 83.37205893 107.29713381 81.55947876 105.47183228 C80.45337374 104.3620971 79.34712941 103.25250075 78.24072266 102.14306641 C77.73684021 101.63401764 77.23295776 101.12496887 76.71380615 100.60049438 C73.95092982 97.83719682 72.25768606 96.23955925 68.375 95.5 C59.64664778 96.79308922 51.85187429 108.12734418 45.84251404 114.296278 C42.71505457 117.50109534 39.56890841 120.68751381 36.42578125 123.87695312 C32.44507147 127.91772241 28.47034406 131.96384097 24.51708984 136.03149414 C21.30276246 139.33784591 18.06921367 142.62426329 14.82188416 145.89819527 C13.59310528 147.14422376 12.37151745 148.39738767 11.15748596 149.65778923 C9.46103924 151.41711367 7.74111027 153.14983331 6.01367188 154.87866211 C5.52201035 155.40065689 5.03034882 155.92265167 4.52378845 156.46046448 C1.70630347 159.22176857 -0.35122125 160.32628606 -4.21960449 160.41383362 C-8 160 -8 160 -10.5 158.5 C-12.57846464 155.03589226 -12.74807348 151.89243119 -12 148 C-10.46497902 145.37098911 -8.43187346 143.42599697 -6.23266602 141.34033203 C-5.61979736 140.72790146 -5.00692871 140.11547089 -4.37548828 139.48448181 C-2.35319593 137.47282687 -0.30421267 135.49087288 1.74609375 133.5078125 C3.15798374 132.11339243 4.56803988 130.7171133 5.97633362 129.31906128 C9.68238168 125.64917024 13.4113728 122.00350733 17.14611816 118.362854 C21.68750433 113.9275569 26.20211061 109.46503773 30.72004032 105.00587273 C34.23349949 101.53894339 37.75102716 98.07649628 41.28135681 94.6267395 C41.92796768 93.99332138 42.57457855 93.35990326 43.24078369 92.70729065 C44.45097949 91.52210979 45.66311872 90.33890896 46.8775177 89.15803528 C50.97973053 85.1640407 50.97973053 85.1640407 52.42295837 79.78413391 C51.8533872 74.68828114 49.83419433 72.89148208 46.23266602 69.45385742 C45.61979736 68.84157288 45.00692871 68.22928833 44.37548828 67.59844971 C42.35096009 65.58387549 40.30291286 63.59511491 38.25390625 61.60546875 C36.84223379 60.20939757 35.43217456 58.8116934 34.02366638 57.41242981 C30.3154685 53.73659579 26.58718135 50.0818337 22.85388184 46.43151855 C18.31476022 41.98622141 13.79845903 37.51776659 9.27995968 33.05152607 C5.76586607 29.57860501 2.24808255 26.10972054 -1.28135681 22.65238953 C-1.92796768 22.01735001 -2.57457855 21.38231049 -3.24078369 20.72802734 C-4.45099997 19.53966357 -5.66314027 18.35325489 -6.8775177 17.16914368 C-10.478309 13.62757748 -11.88076753 12.23206889 -12.375 7.125 C-12.32042351 3.79583412 -12.13460445 3.16723583 -9.9375 0.4375 C-5.93015055 -1.52354335 -4.25506447 -1.370275 0 0 Z " fill="#E54040" transform="translate(50,309)"/>
<path d="M0 0 C16.18242291 10.75502583 27.34609372 26.76245391 31.43359375 45.76171875 C34.75450007 63.61361517 30.70933725 80.70536521 21.16796875 96.10546875 C9.88717619 111.99390897 -6.57512885 122.60778648 -25.83203125 126.10546875 C-44.32078131 128.09066634 -62.35656037 123.6647822 -77.14453125 112.16796875 C-78.72256383 110.83193478 -80.2863538 109.47880586 -81.83203125 108.10546875 C-82.46882813 107.55117187 -83.105625 106.996875 -83.76171875 106.42578125 C-95.07585308 95.91620759 -102.511639 79.7730992 -103.203125 64.3828125 C-103.44258118 52.03870089 -103.24232703 41.42165992 -97.83203125 30.10546875 C-97.33574219 29.06648438 -96.83945313 28.0275 -96.328125 26.95703125 C-86.85359373 9.1951389 -71.78694016 -1.84624123 -52.83203125 -7.89453125 C-35.57204406 -12.96924291 -15.19677152 -8.68122514 0 0 Z M-74.83203125 23.10546875 C-85.22541053 35.3465599 -88.73105924 49.3558302 -87.83203125 65.10546875 C-85.63803575 80.31469181 -77.28549109 92.62838917 -65.20703125 101.91796875 C-52.34800691 110.26644301 -38.07600119 112.15420925 -23.1875 109.44140625 C-9.02915381 105.57851227 2.36168139 96.65229957 10.04296875 84.23046875 C16.87840606 71.60632003 18.68006027 56.99397038 14.78027344 43.0559082 C10.43076268 29.6449167 1.40029556 18.82006551 -10.99755859 12.16333008 C-32.61552452 1.17021751 -58.0612907 5.04218558 -74.83203125 23.10546875 Z " fill="#000102" transform="translate(153.83203125,64.89453125)"/>
<path d="M0 0 C13.62408904 10.77077774 24.16428532 25.78731572 26.81640625 43.2265625 C27.08134711 47.08585631 27.09675605 50.92199246 27.06640625 54.7890625 C27.07414063 55.77841797 27.081875 56.76777344 27.08984375 57.78710938 C27.04308965 75.40171625 19.34695251 91.10154459 7.62890625 103.9765625 C-8.88575598 119.30888171 -27.71004977 122.9346462 -49.52050781 122.34960938 C-65.99190015 121.58855494 -80.26000684 111.96941843 -91.18359375 100.2265625 C-96.88478934 93.5086537 -101.08384105 86.46683035 -104.18359375 78.2265625 C-104.57675781 77.19144531 -104.96992188 76.15632813 -105.375 75.08984375 C-111.22741577 57.53259643 -108.72687284 40.61529115 -100.99609375 24.0390625 C-91.73208068 6.43743766 -77.35485082 -4.11732046 -59.05078125 -10.94140625 C-39.31917832 -16.66733462 -16.50947609 -11.73909485 0 0 Z M-80.11328125 20.71484375 C-90.30330635 33.07745911 -93.48842293 46.2944027 -92.43359375 61.97509766 C-90.89940975 75.79174299 -83.31511309 87.53422963 -72.80078125 96.375 C-59.88317098 105.51372726 -46.04563956 109.27279706 -30.26171875 106.76171875 C-15.7749184 103.22375739 -4.02044217 95.43465338 4.24609375 83.015625 C11.46546352 70.19316228 13.89707032 56.48340767 10.69140625 42.0390625 C6.54206429 27.5739954 -3.04057352 15.58039525 -16.18359375 8.2265625 C-38.9357494 -1.69725007 -62.82922769 2.470565 -80.11328125 20.71484375 Z " fill="#000102" transform="translate(434.18359375,333.7734375)"/>
<path d="M0 0 C2.12835316 1.60611836 2.89557124 2.48914579 3.43359375 5.12109375 C3.43994339 8.88642847 3.4311636 11.29289169 1.4375 14.5625 C-1.92874109 16.54771911 -4.15426517 16.48071685 -8 16 C-10.375 15 -10.375 15 -12 13 C-13.03500809 9.41552346 -13.35431074 6.22398257 -12.3125 2.625 C-8.78268415 -1.74524819 -5.21108397 -1.23171076 0 0 Z " fill="#000000" transform="translate(290,277)"/>
<path d="M0 0 C2.89479637 1.73687782 3.01335881 3.05152682 3.875 6.375 C4.01384714 10.40156711 3.47120257 11.88811528 1 15 C-2.09173752 16.54586876 -4.59429552 16.29359521 -8 16 C-10.4375 14.5625 -10.4375 14.5625 -12 12 C-12.60873844 8.87016555 -12.65247963 6.125034 -12 3 C-8.4155313 -1.56205107 -5.39619856 -1.49894405 0 0 Z " fill="#000000" transform="translate(231,277)"/>
<path d="M0 0 C2.4375 1.4375 2.4375 1.4375 4 4 C4.60873844 7.12983445 4.65247963 9.874966 4 13 C1.9375 15.625 1.9375 15.625 -1 17 C-4.47061229 16.94016186 -6.88054428 16.67167343 -9.875 14.875 C-11.64983667 11.91693888 -11.88200002 9.42199954 -12 6 C-9.23686788 -0.05257513 -6.48314875 -0.55889213 0 0 Z " fill="#000000" transform="translate(289,219)"/>
<path d="M0 0 C2.375 1 2.375 1 4 3 C5.03500809 6.58447654 5.35431074 9.77601743 4.3125 13.375 C2.61460482 15.47715593 1.61213176 16.22342029 -1 17 C-7.10031239 16.67893093 -7.10031239 16.67893093 -9.6875 14.7265625 C-11.78434281 11.96821571 -11.47488474 9.51892628 -11.34375 6.1640625 C-11 4 -11 4 -9.4375 1.4375 C-6.07125891 -0.54771911 -3.84573483 -0.48071685 0 0 Z " fill="#000000" transform="translate(230,219)"/>
</svg>
